<svg width="1512" height="6407" viewBox="0 0 1512 6407" fill="none" xmlns="http://www.w3.org/2000/svg">
<path d="M-211.01 6256.01C-294.087 6192.25 54.7051 5894.63 102.527 5894.51C154.334 5894.38 245.328 6072.9 253.527 6102.01C270.199 6132.3 133.104 6335.69 102.527 6322.04C63.6318 6327.04 -142.306 6286.67 -211.01 6256.01Z" fill="url(#paint0_linear_184_3)"/>
<path d="M1199.06 5979.74C1130.92 5928.93 714.622 5622.68 753.164 5623.47C794.918 5624.33 1486.19 5588.06 1571.85 5920.29C1585.85 5944.01 1477.88 6047.66 1452.98 6036.55C1421.72 6039.7 1255 6004.71 1199.06 5979.74Z" fill="url(#paint1_linear_184_3)"/>
<path d="M1540.88 2681.68C1396.87 2657.49 1418.27 2415.01 1473.6 2374.27C1533.53 2330.14 1586.7 2345.23 1618 2381.49C1660 2412.31 1696.68 2475.53 1702.37 2521.27C1708.06 2567.01 1643.45 2668.93 1540.88 2681.68Z" fill="url(#paint2_linear_184_3)"/>
<path d="M446.304 193.689C381.618 331.348 135.864 237.657 83.8487 178.696C27.4985 114.821 60.8416 64.7447 122.527 38.5927C281.395 -41.0766 330 62.5 395.5 7.50003C440 -29.8663 446.304 92.0009 446.304 193.689Z" fill="url(#paint3_linear_184_3)"/>
<path d="M1113 1225.43C1018.24 1463.72 478.466 1376.59 402.263 1274.52C319.71 1163.95 368.558 1077.27 458.927 1032C530.733 1053.4 758.359 1032 862.899 1032C967.439 1032 1113 1049.4 1113 1225.43Z" fill="url(#paint4_linear_184_3)"/>
<path d="M197 1526.41C155.218 1666.33 -82.768 1615.17 -116.366 1555.24C-152.764 1490.31 -131.227 1439.41 -91.383 1412.83C-55.6087 1374.96 40.6376 1412.83 86.7296 1412.83C132.822 1412.83 197 1423.05 197 1526.41Z" fill="url(#paint5_linear_184_3)"/>
<path d="M1695 1607.41C1653.22 1747.33 1415.23 1696.17 1381.63 1636.24C1345.24 1571.31 1366.77 1520.41 1406.62 1493.83C1442.39 1455.96 1538.64 1493.83 1584.73 1493.83C1630.82 1493.83 1695 1504.05 1695 1607.41Z" fill="url(#paint6_linear_184_3)"/>
<path d="M1509.45 4350.14C1390.79 4325.19 1388.09 4205.36 1436.5 4176.5C1488.94 4145.24 1485.41 3850.25 1509.45 3879.5C1542.72 3905.04 1655.56 4221.65 1657.72 4257.05C1659.89 4292.45 1595.66 4344.87 1509.45 4350.14Z" fill="url(#paint7_linear_184_3)"/>
<path d="M1535.89 3458.4C1393.68 3425.24 1279.21 3322.72 1328.62 3274.98C1417.62 3188.98 1382.12 3125.83 1479.62 3099.48C1609.12 3064.48 1710 3292.38 1712.81 3338.38C1715.62 3384.39 1639.06 3452.1 1535.89 3458.4Z" fill="url(#paint8_linear_184_3)"/>
<path d="M-181.139 3085.76C-161.602 2941.04 0.630427 3071.01 35.0731 3130.46C128.838 3292.3 72.7075 3176.6 108.183 3271.16C155.302 3396.76 -8.10513 3356.76 -53.6375 3363.92C-99.1698 3371.08 -165.08 3187.86 -181.139 3085.76Z" fill="url(#paint9_linear_184_3)"/>
<path d="M-256.012 4319.98C-339.088 4256.22 9.70423 4024.63 57.5261 4024.51C109.333 4024.38 200.327 4202.9 208.526 4232.01C225.198 4262.3 88.1025 4399.65 57.5261 4386.01C18.6306 4391 -187.307 4350.64 -256.012 4319.98Z" fill="url(#paint10_linear_184_3)"/>
<path d="M-172.032 2310.77C-94.4843 2187.03 31.5824 2180.2 48.0008 2246.91C65.7874 2319.19 121.158 2482.06 75.6723 2497.07C31.1012 2524.04 -41.3471 2533.69 -85.7734 2521.42C-130.2 2509.14 -199.567 2410.39 -172.032 2310.77Z" fill="url(#paint11_linear_184_3)"/>
<defs>
<linearGradient id="paint0_linear_184_3" x1="164.189" y1="6059.66" x2="73.4212" y2="6205.47" gradientUnits="userSpaceOnUse">
<stop stop-color="#5801FF"/>
<stop offset="1" stop-color="#E901FF"/>
</linearGradient>
<linearGradient id="paint1_linear_184_3" x1="1430.18" y1="5968.95" x2="1361.6" y2="6081.14" gradientUnits="userSpaceOnUse">
<stop stop-color="#5801FF"/>
<stop offset="1" stop-color="#E901FF"/>
</linearGradient>
<linearGradient id="paint2_linear_184_3" x1="1668.55" y1="2244.38" x2="1654.85" y2="2537.02" gradientUnits="userSpaceOnUse">
<stop offset="0.0061045" stop-color="#5801FF"/>
<stop offset="1" stop-color="#E901FF"/>
</linearGradient>
<linearGradient id="paint3_linear_184_3" x1="-8.36657" y1="-80.3624" x2="420.389" y2="35.7961" gradientUnits="userSpaceOnUse">
<stop stop-color="#5801FF"/>
<stop offset="1" stop-color="#E901FF"/>
</linearGradient>
<linearGradient id="paint4_linear_184_3" x1="267.168" y1="889.328" x2="907.722" y2="1036.2" gradientUnits="userSpaceOnUse">
<stop stop-color="#5801FF"/>
<stop offset="1" stop-color="#E901FF"/>
</linearGradient>
<linearGradient id="paint5_linear_184_3" x1="-221.201" y1="1345.75" x2="67.5114" y2="1395.45" gradientUnits="userSpaceOnUse">
<stop stop-color="#5801FF"/>
<stop offset="1" stop-color="#E901FF"/>
</linearGradient>
<linearGradient id="paint6_linear_184_3" x1="1276.8" y1="1426.75" x2="1565.51" y2="1476.45" gradientUnits="userSpaceOnUse">
<stop stop-color="#5801FF"/>
<stop offset="1" stop-color="#E901FF"/>
</linearGradient>
<linearGradient id="paint7_linear_184_3" x1="1640.5" y1="4019.74" x2="1618.8" y2="4244.61" gradientUnits="userSpaceOnUse">
<stop stop-color="#5801FF"/>
<stop offset="1" stop-color="#E901FF"/>
</linearGradient>
<linearGradient id="paint8_linear_184_3" x1="1690.7" y1="3029.96" x2="1658.7" y2="3321.17" gradientUnits="userSpaceOnUse">
<stop stop-color="#5801FF"/>
<stop offset="1" stop-color="#E901FF"/>
</linearGradient>
<linearGradient id="paint9_linear_184_3" x1="225.53" y1="3211.95" x2="-67.3987" y2="3207.7" gradientUnits="userSpaceOnUse">
<stop stop-color="#5801FF"/>
<stop offset="1" stop-color="#E901FF"/>
</linearGradient>
<linearGradient id="paint10_linear_184_3" x1="119.188" y1="4189.66" x2="28.42" y2="4335.47" gradientUnits="userSpaceOnUse">
<stop stop-color="#5801FF"/>
<stop offset="1" stop-color="#E901FF"/>
</linearGradient>
<linearGradient id="paint11_linear_184_3" x1="182.927" y1="2596.31" x2="-82.11" y2="2471.49" gradientUnits="userSpaceOnUse">
<stop stop-color="#5801FF"/>
<stop offset="1" stop-color="#E901FF"/>
</linearGradient>
</defs>
</svg>
