<svg width="345" height="284" viewBox="0 0 345 284" fill="none" xmlns="http://www.w3.org/2000/svg">
<path d="M247.453 268.084C248.6 267.253 247.77 265.855 246.977 265.087L246.589 264.636C246.46 264.486 246.353 264.392 246.286 264.221L245.662 263.527C245.078 262.755 244.499 262.174 243.983 261.572L243.55 261.007C242.825 260.411 242.285 259.753 241.763 258.96L241.438 258.488C240.854 257.716 240.208 256.964 239.499 256.233L239.112 255.782C238.466 255.031 237.926 254.372 237.342 253.6L237.017 253.128C236.54 252.45 236 251.791 235.461 251.133L235.051 250.625C234.281 249.915 233.635 249.163 232.966 248.354L232.191 247.452C232.039 247.245 231.848 247.115 231.719 246.965L230.943 246.063C230.488 245.441 229.994 244.897 229.477 244.295L229.089 243.844C228.657 243.279 228.207 242.849 227.82 242.398C227.69 242.247 227.499 242.118 227.347 241.91C225.886 240.334 224.549 238.717 223.088 237.141L222.701 236.69L220.897 234.777L220.144 233.932C219.801 233.594 219.48 233.314 219.12 233.112C218.737 232.852 218.377 232.65 217.955 232.467C217.684 232.493 217.476 232.497 217.29 232.559C217.143 232.543 216.957 232.605 216.709 232.687L216.15 232.872C214.949 233.205 213.938 233.668 212.781 234.116C212.369 234.317 212.059 234.419 211.625 234.563C210.659 235.14 210.459 236.237 210.529 237.308L210.522 237.825C210.617 238.244 210.666 238.549 210.637 239.01L210.652 239.584C210.715 241.172 210.987 242.756 210.842 244.349C210.824 244.484 210.767 244.696 210.795 244.944C210.843 245.958 210.913 247.029 211.023 248.023L211.038 248.597C211.108 249.668 211.28 250.641 211.204 251.696L211.242 252.327L211.169 254.283L211.184 254.857C211.289 255.659 211.332 256.482 211.312 257.325L211.35 257.956L211.418 259.736C211.299 259.969 211.389 260.196 211.394 260.388L211.463 263.777C211.491 264.025 211.496 264.216 211.541 264.33C211.588 265.344 211.738 266.26 211.639 267.259L211.677 267.89L211.888 271.103L211.881 271.62C211.901 272.386 211.984 273.131 212.066 273.876C212.002 274.606 212 275.314 212.167 276.096L212.108 277.017C212.153 277.131 212.158 277.322 212.185 277.57C212.302 278.047 212.487 278.694 212.954 278.99C213.207 279.099 213.353 279.115 213.5 279.131L214.374 279.034C214.56 278.973 214.645 279.009 214.831 278.948C216.822 278.482 218.622 277.886 220.31 277.005C220.535 276.866 220.677 276.69 220.779 276.592C221.146 276.278 221.282 275.911 221.334 275.507C221.329 275.316 221.386 275.104 221.358 274.855L221.321 274.224C221.276 274.11 221.271 273.919 221.243 273.671C221.199 273.557 221.194 273.365 221.166 273.117C221.311 271.524 220.854 270.002 220.875 268.45L220.837 267.819L221.21 267.695C221.272 267.675 221.334 267.654 221.373 267.577C221.458 267.613 221.52 267.593 221.644 267.551L222.265 267.346C222.451 267.284 222.659 267.28 222.846 267.218C224.668 266.679 226.512 266.197 228.29 265.544L234.062 263.634C235.011 264.8 235.933 265.718 236.899 266.75L237.287 267.201L238.304 268.538L238.691 268.989C239.355 269.606 240.053 269.954 240.723 270.054C240.932 270.049 241.078 270.065 241.264 270.004C241.845 269.876 242.488 269.727 243.047 269.542L243.605 269.357C244.807 269.024 246.014 268.882 247.002 268.362L247.453 268.084ZM222.301 258.515C222.115 258.577 221.906 258.581 221.658 258.664L220.292 259.116C220.212 257.662 220.243 256.493 220.163 255.039C220.135 254.79 220.13 254.599 220.086 254.485C220.008 253.931 219.993 253.357 220.085 252.876L220.069 252.302C220.049 251.536 220.091 250.75 219.986 249.948C219.981 249.756 219.998 249.622 219.953 249.508C219.926 249.26 219.921 249.068 219.853 248.897C219.826 248.649 219.821 248.457 219.798 248.401C219.783 247.826 219.745 247.195 219.579 246.413C219.775 246.735 219.989 246.921 220.118 247.072L220.505 247.523C221.793 248.835 222.769 250.249 224.119 251.541L224.422 251.955C225.642 253.096 226.698 254.356 227.821 255.786L228.254 256.351L228.405 256.559L227.785 256.764C225.985 257.36 224.033 257.748 222.301 258.515Z" fill="white"/>
<path d="M77.1757 231.153C77.9823 230.438 78.6956 229.721 79.4564 228.963L80.7849 227.784C81.1628 227.533 81.3526 227.365 81.5898 227.155C82.8709 226.019 83.9621 225.051 85.1974 223.871C85.5295 223.577 85.7667 223.366 85.8632 223.197C86.2444 222.774 86.7188 222.354 87.1459 221.975L88.8065 220.502C88.8998 220.504 89.0421 220.378 89.1844 220.251C90.6062 219.075 92.2572 218.116 93.3123 216.591C94.3166 215.279 92.4716 214.137 91.6512 213.096L91.1469 212.617C90.4134 211.92 89.6783 211.309 89.0807 210.829C88.804 210.653 88.6681 210.437 88.3882 210.432C87.6957 210.036 86.9478 210.11 86.1918 210.612C84.302 211.867 83.1473 213.733 81.3491 215.075L80.59 215.748C80.3527 215.958 80.0697 216.125 79.8324 216.336C79.5478 216.588 79.3105 216.798 79.214 216.968C78.5023 217.599 78.0263 218.106 77.3146 218.737L77.0773 218.947C75.5116 220.336 74.2684 221.943 72.7485 223.376L72.2266 223.838C70.8048 225.015 69.293 226.019 67.868 227.367L67.4884 227.703C67.0614 228.082 66.5885 228.417 66.2548 228.797L65.6412 229.173C64.2669 230.308 62.3312 231.519 60.6029 231.62C60.2281 231.7 59.9482 231.696 59.6209 231.733L59.1086 231.683L58.6438 231.59C56.7891 230.961 55.2272 229.652 54.04 228.262L53.7239 227.701C53.3619 227.096 53.234 226.451 53.2943 225.724L53.3055 225.125C53.3577 224.826 53.4542 224.656 53.5033 224.528C53.603 224.187 53.6552 223.888 53.8007 223.591C54.1409 222.868 54.5711 222.318 54.9997 221.854L55.4267 221.475C55.8111 220.882 56.2397 220.418 56.7616 219.955C57.4275 219.28 57.951 218.732 58.5678 218.185L59.0422 217.764C59.232 217.596 59.3285 217.426 59.5183 217.258C59.5674 217.13 59.7097 217.004 59.9469 216.793C61.236 215.229 63.1685 214.189 64.5492 212.712L65.0237 212.291C66.0723 211.109 67.396 210.187 68.5805 209.221C73.3726 204.971 74.5684 203.406 75.8889 202.656L76.4582 202.151C76.9343 201.645 77.5985 201.055 77.6097 200.456C77.6145 200.199 77.5244 200.027 77.3869 199.896L75.1863 197.806C73.7065 197.097 72.7283 194.512 70.6583 195.422L70.187 195.671C69.2903 196.214 68.6671 197.104 67.8621 197.733C67.7656 197.903 67.6233 198.029 67.3861 198.24C67.054 198.534 66.8167 198.745 66.7202 198.914L66.249 199.164C66.0117 199.374 65.8694 199.5 65.7729 199.67C64.446 200.763 63.2567 201.986 61.9756 203.122C61.8333 203.248 61.7368 203.418 61.5011 203.543C60.7895 204.174 59.9845 204.803 59.2712 205.52L58.7018 206.025C57.9427 206.698 57.1819 207.457 56.4228 208.13C54.8571 209.519 53.3356 211.037 51.8157 212.469C50.7228 213.522 49.6284 214.661 48.5798 215.843C47.4362 217.11 46.3386 218.42 45.565 219.864C44.9877 220.797 44.5969 221.733 44.301 222.585C44.0083 223.265 43.9022 223.949 43.7961 224.632L43.7359 225.36C43.5679 226.856 44.0562 228.191 44.5888 229.655L44.9475 230.432C46.1597 232.977 48.5533 234.728 50.474 236.814L51.1617 237.467C52.915 238.522 54.6193 239.705 56.7095 240.209L57.361 240.305C58.2907 240.491 59.3153 240.593 60.3415 240.609L60.9945 240.619C63.0976 240.438 65.0695 239.784 67.0415 239.13C67.1838 239.004 67.372 238.921 67.5143 238.795C67.6567 238.669 67.8923 238.544 68.0346 238.418L69.7347 237.331C69.9245 237.163 70.1617 236.953 70.3973 236.828C71.2466 236.327 71.8634 235.78 72.526 235.277C74.2293 234.019 75.7033 232.543 77.1757 231.153Z" fill="white"/>
<path d="M298.344 225.386C298.064 225.215 297.83 225.001 297.503 224.702L297.083 224.317C296.522 223.546 295.542 222.991 294.75 223.976L286.873 231.219L282.81 227.497C282.39 227.112 282.017 226.684 281.596 226.299C281.456 226.171 281.363 226 281.223 225.871C279.915 224.417 278.328 223.305 276.927 221.936C276.74 221.765 276.6 221.636 276.413 221.551L274.592 219.883C273.471 218.599 272.397 217.615 271.276 216.332L270.809 215.904C270.295 215.433 269.688 214.963 269.175 214.492L268.755 214.107C267.307 212.781 265.953 211.455 264.365 210.258L263.945 209.873C262.824 208.846 261.703 207.134 260.117 207.478L259.744 207.65L259.418 207.95C259.278 207.993 259.138 208.121 258.952 208.292C258.672 208.464 258.392 208.721 258.159 208.935C257.926 209.15 257.786 209.278 257.693 209.45L257.32 209.792C256.761 210.307 256.295 210.821 255.736 211.335C255.596 211.464 255.503 211.635 255.363 211.764C254.99 212.363 254.711 212.963 255.085 213.733C255.225 213.862 255.319 214.033 255.505 214.204C255.739 214.504 256.112 214.76 256.579 215.017L258.26 216.557C259.568 217.754 260.875 219.038 262.089 220.064L262.416 220.364C263.957 222.032 265.685 223.53 267.319 225.112L267.833 225.583C268.674 226.439 269.374 227.166 270.308 227.936L272.456 229.904C273.53 230.888 277.592 234.524 281.095 237.732L281.421 238.031C282.869 239.443 284.27 241.069 285.951 242.352C286.091 242.48 286.231 242.609 286.324 242.609C286.511 242.694 286.698 242.694 286.791 242.694C287.864 242.393 288.516 241.793 289.215 241.065L289.682 240.636C290.986 239.179 292.525 238.022 293.923 236.651L299.143 231.851C299.236 231.679 299.423 231.508 299.656 231.294C299.889 231.079 300.122 230.951 300.448 230.651L300.821 230.308C301.893 229.579 301.612 228.466 300.725 227.653L300.445 227.397C300.025 226.755 299.371 226.242 298.764 225.771L298.344 225.386Z" fill="white"/>
<path d="M20.8658 159.51C20.9786 159.374 21.0735 159.118 21.1595 158.801C21.198 158.613 21.1533 158.313 21.0907 157.893C20.4596 155.894 21.109 153.551 19.7857 151.823C19.5449 151.548 19.1912 151.409 18.8464 151.33C18.4928 151.191 18.0262 151.188 17.5687 151.246C17.3726 151.271 17.2983 151.219 17.1022 151.243L16.4306 151.206C15.6193 151.124 14.7991 150.983 13.9996 150.533C13.6459 150.394 13.4229 150.239 13.1346 150.092L12.7541 149.773L12.4389 149.446C11.3475 147.933 10.9305 146.029 10.867 144.265L10.9737 143.64C11.0713 142.956 11.383 142.367 11.8997 141.813L12.2946 141.335C12.5293 141.123 12.7164 141.038 12.8382 140.962C13.1382 140.74 13.3728 140.528 13.6817 140.367C14.3086 140.104 15.0008 139.834 15.7762 139.676C15.9723 139.651 16.1595 139.566 16.3556 139.542C17.0567 139.331 17.7014 139.189 18.4205 139.099C19.392 138.916 20.1675 138.757 21.0173 138.65C21.2787 138.618 21.4659 138.533 21.662 138.508C21.9235 138.475 22.1106 138.391 22.3721 138.358C24.2677 138.12 26.2645 138.113 28.1333 137.695C28.3294 137.671 28.5345 137.706 28.7959 137.673C29.6457 137.566 30.4391 137.528 31.4285 137.465C32.0822 137.382 32.8102 137.352 33.5471 137.382C33.7432 137.357 33.9483 137.392 34.1444 137.368C34.9377 137.329 35.6836 137.419 36.3641 137.517C36.7089 137.596 36.9972 137.743 37.3508 137.882C37.4905 137.925 37.6956 137.961 37.9839 138.108L38.5041 138.47C39.164 138.876 39.6367 139.367 39.9313 140.002L40.2169 140.577C40.6725 142.293 40.8281 144.229 40.2199 145.955L40.0122 146.348L39.739 146.749C39.5044 146.962 39.3351 147.167 39.0351 147.388C38.5095 147.882 38.0223 148.187 37.4609 148.441L36.8905 148.635C36.0676 148.922 35.096 149.105 34.5793 149.659C34.1844 150.136 34.4968 150.891 34.5952 151.551L34.8995 153.591C34.7785 155.012 34.91 156.34 35.808 157.45C35.9387 157.433 36.0694 157.417 36.1438 157.469C37.4842 157.972 38.8596 157.372 40.1401 157.028L40.6451 156.842C41.5988 156.539 42.4217 156.252 43.1999 155.665C43.6306 155.428 44.0524 155.13 44.3524 154.909C45.0921 154.511 45.8049 153.932 46.4998 153.234L46.8947 152.756C47.5153 152.006 48.0616 151.204 48.4772 150.418L48.7978 149.889C49.6585 148.07 49.6989 146.109 49.8791 144.192L49.7449 143.292C49.1461 140.617 49.1266 137.808 47.696 135.36L47.2528 134.621C46.328 133.331 45.4864 132.153 44.1012 131.35L43.4413 130.944C42.7904 130.598 42.1394 130.252 41.3756 130.042C40.4632 129.729 39.4201 129.432 38.2641 129.272C36.5494 128.937 34.7487 128.919 32.9569 128.961L31.6971 128.997C31.501 129.021 31.2959 128.986 31.0998 129.011L29.317 129.112C29.1209 129.137 28.9158 129.102 28.7197 129.126C27.0587 129.152 25.4899 129.349 23.8647 129.614L23.2764 129.688C21.5383 130.09 19.8952 130.235 18.1392 130.517L17.5509 130.591C16.514 130.782 15.4771 130.973 14.458 131.285C12.72 131.687 10.9909 132.148 9.43722 132.894C8.37073 133.333 7.45286 133.876 6.66573 134.403C5.99143 134.793 5.46577 135.287 4.94011 135.781L4.42339 136.335C3.3246 137.451 2.85885 138.793 2.34563 140.263L2.13512 141.084C1.47404 143.795 2.27788 146.505 2.48447 149.23L2.6187 150.13C3.35368 151.932 3.96686 153.811 5.32867 155.351L5.79246 155.781C6.42278 156.436 7.18383 157.073 8.00131 157.643L8.52152 158.005C10.3347 159 12.3466 159.542 14.3586 160.083C14.5547 160.059 14.7598 160.094 14.9559 160.07C15.152 160.045 15.4224 160.072 15.6185 160.047L17.6896 160.093L18.0818 160.043C19.0892 160.1 20.349 160.064 20.8658 159.51Z" fill="white"/>
<path d="M46.6535 198.175C48.5811 197.382 50.5969 196.617 52.4685 195.58L53.5976 194.942L54.0129 194.757L55.0826 194.145C56.6592 193.105 58.4393 192.311 59.5798 190.724C59.9086 190.376 60.2086 189.973 60.4187 189.677C60.9865 189.087 61.4678 188.333 61.8914 187.471L62.1048 186.905C62.4402 186.014 62.6874 185.096 62.816 184.231L62.9412 183.636C63.1423 181.662 62.5159 179.787 62.037 177.913L61.6043 177.096C60.1282 174.725 59.1573 172.061 56.9676 170.143L56.2959 169.567C54.9797 168.606 53.7806 167.727 52.1916 167.359L51.4268 167.161C50.6909 167.019 49.9549 166.876 49.158 166.895C48.1847 166.858 47.0927 166.873 45.9398 167.051C44.1967 167.223 42.4793 167.72 40.7906 168.271L39.6055 168.665C39.4275 168.745 39.2207 168.77 39.0427 168.849L37.3829 169.455C37.2049 169.535 36.998 169.56 36.82 169.639C35.2501 170.137 33.826 170.773 32.3714 171.489L31.8374 171.727C30.3218 172.606 28.8096 173.213 27.2363 173.982L26.7023 174.221C25.7817 174.699 24.8612 175.177 23.9984 175.764C22.4828 176.642 20.9961 177.574 19.7723 178.726C18.9078 179.449 18.2197 180.227 17.6502 180.952C17.1417 181.516 16.8096 182.135 16.4775 182.755L16.1743 183.429C15.5084 184.803 15.5208 186.211 15.5316 187.755L15.6099 188.596C15.9009 191.361 17.5838 193.707 18.7039 196.237L19.1366 197.054C20.4462 198.557 21.6659 200.167 23.4823 201.242L24.0691 201.519C24.89 201.96 25.8295 202.349 26.7995 202.657L27.4168 202.853C29.4771 203.28 31.5729 203.22 33.6687 203.16C33.8467 203.081 34.0535 203.056 34.2315 202.977C34.4095 202.897 34.6757 202.846 34.8537 202.766L36.8374 202.218C37.0748 202.112 37.3714 201.98 37.6376 201.928C38.6142 201.695 39.3856 201.35 40.1858 201.061C42.2305 200.35 44.1309 199.368 46.0008 198.466L46.6535 198.175ZM38.4055 192.16L37.1594 192.716C36.8034 192.875 36.566 192.98 36.4169 193.114L35.7065 193.297C35.2318 193.508 34.4909 193.772 33.9008 193.766C32.6275 194.132 31.4136 194.471 30.0892 194.187C29.706 194.156 29.4414 194.072 29.1176 194.015L28.6478 193.82L28.2374 193.599C26.6871 192.473 25.6454 190.783 24.9869 189.125L24.8764 188.501C24.7371 187.822 24.8335 187.173 25.1368 186.499L25.3502 185.933C25.501 185.664 25.6502 185.53 25.74 185.422C25.9502 185.127 26.101 184.857 26.34 184.616C26.8468 184.188 27.413 183.733 28.0962 183.361C28.2742 183.282 28.4233 183.148 28.6013 183.068C29.1963 182.668 29.7609 182.349 30.4136 182.058C31.2748 181.606 31.958 181.234 32.7293 180.89C32.9667 180.784 33.1159 180.65 33.2939 180.571C33.5312 180.465 33.6804 180.331 33.9177 180.225C35.6385 179.457 37.534 178.881 39.1682 177.95C39.3462 177.87 39.5531 177.845 39.7904 177.74C40.5618 177.395 41.3027 177.132 42.2216 176.79C42.8149 176.525 43.4965 176.288 44.2069 176.106C44.3849 176.026 44.5917 176.001 44.7698 175.922C45.5106 175.659 46.2499 175.531 46.9298 175.429C47.2842 175.406 47.608 175.463 47.9913 175.494C48.1388 175.496 48.3456 175.471 48.6695 175.528L49.2868 175.724C50.0516 175.922 50.6672 176.253 51.1626 176.773L51.629 177.238C52.6436 178.738 53.448 180.533 53.4555 182.348L53.3912 182.78L53.2676 183.24C53.1168 183.509 53.0253 183.752 52.8151 184.047C52.2408 185.179 51.1999 185.845 50.0997 186.538C49.7404 186.968 49.0572 187.34 48.5825 187.552L47.9875 187.952C47.484 188.109 46.9499 188.347 46.4159 188.586L44.0424 189.645C43.5373 189.937 43.0914 190.204 42.4387 190.495L41.9047 190.733C40.8959 191.183 39.7718 191.415 38.792 191.92C38.614 191.999 38.5835 192.08 38.4055 192.16Z" fill="white"/>
<path d="M128.916 237.662C129.037 237.447 129.128 237.285 129.099 237.204C129.638 236.641 129.944 235.832 129.924 235.209C129.956 235.02 129.957 234.884 129.812 234.747C129.783 234.666 129.727 234.503 129.581 234.366C127.915 233.236 126.271 232.594 124.423 231.787C124.247 231.704 124.041 231.675 123.865 231.591C123.129 231.447 122.422 231.385 121.736 231.946C121.645 232.107 121.495 232.241 121.374 232.456C121.134 232.751 120.981 233.156 120.857 233.642L118.951 237.032C118.047 238.376 117.202 239.747 116.416 241.146C116.297 241.226 116.206 241.388 116.085 241.603C115.541 242.572 115.085 243.514 114.688 244.485C114.597 244.646 114.448 244.78 114.357 244.941L114.085 245.425C113.214 246.58 112.607 247.792 111.911 249.029L109.703 252.958C109.746 251.956 109.701 250.981 109.566 250.031L109.485 249.516L109.462 249.028L109.411 248.459C109.461 246.916 109.51 245.508 109.147 244.041L109.037 243.444C108.87 242.684 108.821 241.979 108.86 241.249L108.809 240.679L108.867 238.595C108.899 238.405 108.843 238.242 108.816 238.025C108.801 236.996 108.666 236.047 108.709 235.045C108.772 234.802 108.745 234.585 108.747 234.45C108.749 234.314 108.722 234.097 108.637 233.853L108.556 233.337L108.379 231.142L108.387 230.6L108.305 230.085C108.22 229.84 108.25 229.786 108.283 229.597C108.155 228.106 107.703 226.665 107.988 225.233L107.964 224.881L107.88 224.501C107.852 224.419 107.795 224.256 107.649 224.119C106.982 223.326 105.955 222.908 104.928 222.49L104.4 222.24C103.931 222.018 103.373 221.822 102.845 221.572C102.669 221.489 102.463 221.459 102.287 221.376C101.551 221.232 100.844 221.17 100.158 221.73C100.067 221.892 99.9176 222.026 99.7966 222.241C99.5565 222.536 99.4034 222.94 99.2787 223.426L93.5622 233.597C93.5319 233.651 93.443 233.677 93.4128 233.731L93.1103 234.269L90.303 238.868L88.6395 241.827C87.7623 243.388 83.9797 250.25 81.439 254.771L81.2273 255.147C80.6223 256.224 79.3366 257.454 79.7094 258.244L79.9686 258.708C80.4926 259.228 81.2246 259.643 82.0758 259.978L82.6621 260.255C84.4854 260.71 85.9327 262.757 87.4209 261.827C88.2245 261.321 88.4739 260.349 88.9295 259.407L89.2017 258.923C89.5646 258.277 89.869 257.603 90.4078 257.041L96.9108 245.471C97.2737 244.825 97.6367 244.179 98.0583 243.561L98.27 243.184C98.9033 242.19 99.3002 241.219 99.8163 240.169C99.9699 241.877 99.713 243.391 100.014 245.1C100.043 245.182 100.099 245.345 100.067 245.534C100.152 245.779 100.122 245.833 100.09 246.022L100.054 246.482C100.139 246.727 100.109 246.781 100.077 246.97C100.435 248.842 100.352 250.575 100.415 252.444L100.438 252.932L100.519 253.447C100.822 255.022 100.535 256.589 101.075 258.139C101.099 258.491 101.096 258.762 100.975 258.977L101.028 259.411L101.075 260.251L101.126 260.821C101.31 262.475 101.379 263.938 101.445 265.536C101.472 265.753 101.529 265.917 101.497 266.106C101.775 267.328 101.216 269.379 102.95 269.86L104.24 270.471C106.063 270.925 107.511 272.973 108.999 272.042C109.893 271.375 110.176 270.079 110.87 268.976L111.294 268.223C111.505 267.846 111.715 267.605 111.986 267.256L118.489 255.686C119.366 254.125 120.508 252.622 121.209 250.978C121.3 250.817 121.449 250.683 121.57 250.468C121.963 249.768 122.385 249.15 122.897 248.371L125.559 243.635C125.71 243.366 126.619 241.616 127.678 239.733L127.92 239.302C128.19 238.953 128.372 238.63 128.583 238.254L128.916 237.662Z" fill="white"/>
<path d="M171.085 250.359C171.148 250.236 171.209 250.053 171.4 249.806L171.85 249.372C172.362 248.815 172.946 248.438 173.666 248.239L174.321 248.042C176.229 247.816 178.342 247.888 180.145 248.633L180.547 248.866L180.952 249.16C181.156 249.397 181.359 249.574 181.565 249.872C182.042 250.406 182.319 250.884 182.532 251.425L182.679 251.966C182.757 252.389 182.834 252.811 183.044 253.23C183.188 253.651 183.394 253.949 183.732 254.244C185.528 254.747 187.562 254.336 189.414 254.475C189.678 254.469 189.876 254.464 190.01 254.521C191.329 254.491 192.494 253.676 192.525 252.403C192.517 252.101 192.511 251.919 192.442 251.8L192.127 249.929L191.981 249.448C191.758 248.545 191.539 247.762 190.989 246.988C190.78 246.569 190.504 246.151 190.298 245.853C189.948 245.134 189.4 244.42 188.721 243.709L188.247 243.296C187.503 242.647 186.695 242.06 185.89 241.594L185.353 241.244C183.477 240.258 181.358 240.004 179.302 239.628L178.313 239.651C175.35 239.902 172.306 239.609 169.496 240.644L168.647 240.966C167.149 241.667 165.78 242.305 164.757 243.48L164.244 244.037C163.798 244.592 163.351 245.148 163.04 245.821C162.661 246.436 162.348 247.049 162.165 247.598L161.862 248.575C161.427 249.554 161.188 250.468 161.154 251.62C161.159 251.801 161.098 251.984 161.105 252.226C161.355 254.098 161.21 256.04 162.248 257.772C162.318 257.892 162.388 258.072 162.593 258.31C162.869 258.727 163.141 259.024 163.479 259.319L163.952 259.732C164.97 260.738 166.116 261.619 167.523 262.374L167.924 262.547L168.391 262.717C170.335 263.823 172.527 264.317 174.593 265.056L175.258 265.223C177.316 265.659 179.25 266.402 181.058 267.329C181.257 267.385 181.391 267.442 181.594 267.619C181.929 267.793 182.201 268.09 182.473 268.386C182.544 268.566 182.679 268.684 182.747 268.743L182.96 269.283L183.105 269.764L183.122 270.37C183.096 271.824 182.605 273.168 181.379 274.166L180.926 274.479C180.601 274.668 180.276 274.858 179.948 274.926L179.293 275.123C177.386 275.349 175.272 275.277 173.469 274.532L173.067 274.299L172.663 274.005C172.458 273.768 172.255 273.591 172.049 273.293C171.437 272.641 171.153 271.92 170.935 271.199L170.786 270.596C170.781 270.415 170.714 270.356 170.709 270.174C170.697 269.751 170.619 269.328 170.413 269.03L170.138 268.613L169.732 268.259C169.532 268.203 169.331 268.086 169.066 268.032C168.335 267.867 167.542 267.825 166.685 267.845C166.421 267.851 166.223 267.856 166.089 267.798C165.039 268.005 163.781 267.852 162.665 268.06C162.467 268.064 162.271 268.13 162.01 268.257C160.703 268.711 160.873 270.1 161.165 271.123L161.177 271.547C161.18 271.668 161.182 271.729 161.25 271.788C161.555 273.295 161.793 274.743 162.623 276.117L162.835 276.596L163.112 277.075C163.315 277.252 163.252 277.374 163.455 277.551C163.937 278.267 164.417 278.922 164.894 279.456L165.367 279.869C166.111 280.518 166.919 281.105 167.724 281.571L168.262 281.922C170.137 282.908 172.256 283.161 174.312 283.537L175.301 283.514C178.264 283.263 181.308 283.556 184.118 282.521L184.967 282.199C186.465 281.498 187.834 280.86 188.857 279.685L189.37 279.128C189.816 278.573 190.263 278.017 190.574 277.344L190.827 276.914L191.013 276.485C191.825 274.831 192.304 273.063 192.585 271.3C192.579 271.058 192.64 270.875 192.633 270.633C192.614 269.967 192.53 269.303 192.315 268.702C192.309 268.46 192.304 268.278 192.233 268.098C192.046 266.104 191.207 264.427 189.782 263.007L189.442 262.651L188.357 261.586L187.75 261.116C186.472 260.237 185.075 259.845 183.676 259.393C183.543 259.336 183.342 259.22 183.076 259.165C180.944 258.427 178.688 257.995 176.618 257.135C176.353 257.081 176.153 257.025 176.087 257.026C174.491 256.579 172.957 256.009 171.676 255.009L171.2 254.535C170.184 253.59 170.139 251.956 170.833 250.789C170.894 250.605 170.956 250.483 171.085 250.359Z" fill="white"/>
<path d="M268.892 248.538L260.914 237.773C259.838 236.322 258.943 234.683 257.703 233.334C257.592 233.183 257.535 232.999 257.386 232.799C256.904 232.148 256.513 231.513 256.011 230.728L252.746 226.322C252.56 226.072 251.318 224.504 250.019 222.751L249.722 222.351C249.517 221.966 249.295 221.666 249.035 221.316L248.627 220.765C248.478 220.565 248.367 220.414 248.275 220.398C247.994 219.695 247.365 219.063 246.758 218.782C246.592 218.666 246.464 218.6 246.263 218.652C246.171 218.636 245.988 218.604 245.787 218.656C243.91 219.462 242.512 220.481 240.858 221.587C240.694 221.689 240.568 221.842 240.404 221.944C239.915 222.469 239.518 223.009 239.728 223.831C239.839 223.981 239.896 224.165 240.044 224.365C240.212 224.7 240.527 225.016 240.933 225.349L247.909 234.761C247.892 234.845 247.929 234.895 248.003 234.995L248.374 235.496C248.485 235.646 248.542 235.831 248.653 235.981C249.675 237.467 250.642 238.987 251.773 240.405L253.48 242.708C254.556 244.16 259.323 250.484 262.44 254.69L262.7 255.04C263.442 256.041 264.008 257.666 264.942 257.742C265.217 257.79 265.234 257.706 265.509 257.754C266.258 257.579 267.004 257.186 267.731 256.66L268.276 256.319C269.581 255.065 272.232 254.874 272.051 253.23C271.857 252.106 270.512 251.261 269.822 250.008L269.488 249.557C269.229 249.207 269.098 248.922 268.892 248.538Z" fill="white"/>
<path d="M326.103 181.077L313.054 175.971C311.294 175.283 309.577 174.347 307.739 173.826C307.557 173.755 307.401 173.628 307.158 173.533C306.369 173.224 305.667 172.883 304.782 172.471L299.441 170.382C299.138 170.263 297.17 169.559 295.046 168.728L294.56 168.538C294.161 168.316 293.797 168.173 293.372 168.007L292.705 167.746C292.462 167.651 292.28 167.58 292.193 167.612C291.543 167.16 290.641 166.939 289.965 167.003C289.758 166.988 289.61 166.996 289.472 167.139C289.385 167.171 289.212 167.235 289.074 167.379C287.968 168.987 287.391 170.538 286.65 172.289C286.572 172.456 286.555 172.647 286.478 172.814C286.375 173.498 286.359 174.15 287.019 174.737C287.201 174.808 287.357 174.935 287.6 175.03C287.938 175.228 288.389 175.339 288.926 175.417L300.336 179.881C300.371 179.961 300.432 179.985 300.553 180.032L301.16 180.27C301.342 180.341 301.498 180.468 301.68 180.539C303.415 181.283 305.123 182.083 306.909 182.716L309.701 183.809C311.461 184.497 319.194 187.457 324.293 189.452L324.717 189.618C325.931 190.093 327.363 191.18 328.194 190.781C328.454 190.685 328.419 190.606 328.678 190.51C329.206 189.992 329.603 189.292 329.904 188.488L330.163 187.931C330.523 186.229 332.643 184.754 331.523 183.46C330.698 182.611 329.069 182.566 327.751 181.853L327.204 181.639C326.78 181.473 326.502 181.299 326.103 181.077Z" fill="white"/>
<path d="M344.642 133.424C344.395 132.102 342.66 132.104 341.546 132.376L340.929 132.473C340.724 132.506 340.583 132.547 340.388 132.52L339.425 132.691C338.407 132.793 337.574 132.982 336.752 133.112L336.004 133.19C335.087 133.49 334.199 133.611 333.191 133.653L332.584 133.69C331.565 133.792 330.537 133.954 329.499 134.176L328.882 134.273C327.854 134.435 326.966 134.555 325.948 134.657L325.341 134.694C324.463 134.755 323.576 134.875 322.688 134.995L322.006 135.083C320.958 135.365 319.93 135.527 318.836 135.679L317.602 135.874C317.331 135.897 317.116 135.989 316.91 136.021L315.676 136.216C314.864 136.285 314.107 136.424 313.284 136.553L312.667 136.651C311.92 136.729 311.293 136.886 310.676 136.983C310.47 137.016 310.255 137.108 309.984 137.131C307.777 137.556 305.59 137.862 303.384 138.287L302.767 138.384L300.074 138.924L298.905 139.128C298.419 139.243 297.997 139.368 297.631 139.562C297.2 139.746 296.834 139.94 296.458 140.193C296.353 140.423 296.258 140.594 296.228 140.773C296.143 140.884 296.113 141.063 296.073 141.303L295.983 141.842C295.728 142.97 295.689 144.005 295.564 145.152C295.56 145.58 295.51 145.879 295.44 146.298C295.531 147.352 296.485 148.038 297.543 148.493L298.035 148.746C298.482 148.87 298.798 148.975 299.225 149.219L299.782 149.481C301.332 150.189 302.978 150.726 304.433 151.605C304.554 151.683 304.729 151.83 304.98 151.926C305.974 152.372 307.033 152.827 308.036 153.213L308.593 153.475C309.652 153.93 310.666 154.256 311.639 154.822L312.261 155.093L314.098 156.086L314.655 156.348C315.473 156.647 316.281 157.005 317.079 157.424L317.701 157.695L319.437 158.49C319.603 158.697 319.864 158.734 320.05 158.821L323.326 160.384C323.577 160.481 323.763 160.568 323.893 160.586C324.887 161.032 325.835 161.349 326.744 161.906L327.366 162.177L330.542 163.542L331.034 163.795C331.777 164.144 332.529 164.433 333.282 164.723C333.95 165.123 334.627 165.463 335.455 165.702L336.308 166.189C336.438 166.208 336.624 166.295 336.875 166.392C337.387 166.525 338.094 166.685 338.601 166.45C338.826 166.298 338.911 166.188 338.997 166.077L339.322 165.326C339.352 165.147 339.427 165.096 339.457 164.916C339.962 163.088 340.252 161.353 340.215 159.571C340.19 159.322 340.089 159.125 340.044 158.996C339.918 158.549 339.632 158.264 339.271 158.03C339.085 157.942 338.909 157.795 338.658 157.698L338.036 157.427C337.906 157.409 337.72 157.322 337.469 157.225C337.339 157.207 337.153 157.119 336.902 157.023C335.447 156.145 333.771 155.787 332.296 155.028L331.673 154.757L331.733 154.398C331.743 154.338 331.753 154.278 331.698 154.209C331.773 154.159 331.783 154.099 331.803 153.979L331.903 153.38C331.933 153.201 332.028 153.03 332.058 152.851C332.413 151.124 332.833 149.407 333.057 147.662L333.985 142.095C335.555 141.887 336.874 141.582 338.324 141.296L338.94 141.199L340.706 141.018L341.323 140.921C342.231 140.681 342.897 140.284 343.313 139.791C343.408 139.621 343.494 139.51 343.524 139.331C343.679 138.801 343.844 138.212 343.933 137.673L344.023 137.135C344.278 136.006 344.719 134.966 344.693 133.921L344.642 133.424ZM323.467 149.133C323.437 149.312 323.342 149.483 323.302 149.722L323.083 151.039C321.653 150.409 320.549 149.825 319.118 149.196C318.868 149.099 318.682 149.012 318.551 148.993C317.984 148.791 317.427 148.529 317.011 148.226L316.454 147.964C315.711 147.614 314.978 147.205 314.161 146.906C313.975 146.819 313.854 146.741 313.724 146.723C313.473 146.626 313.287 146.539 313.092 146.511C312.841 146.415 312.655 146.327 312.59 146.318C312.033 146.056 311.411 145.785 310.583 145.546C310.984 145.541 311.265 145.458 311.471 145.426L312.088 145.329C313.958 144.918 315.779 144.806 317.66 144.335L318.201 144.289C319.876 143.85 321.587 143.6 323.493 143.378L324.24 143.299L324.511 143.276L324.411 143.875C324.121 145.61 323.561 147.369 323.467 149.133Z" fill="white"/>
<path fill-rule="evenodd" clip-rule="evenodd" d="M124.242 74.6985C113.805 91.8564 113.805 103.77 113.805 103.77H145.122C145.122 103.77 141.723 98.5281 141.723 83.2808C141.723 67.7897 145.122 55.876 145.122 55.876C145.122 55.876 134.68 57.5405 124.242 74.6985Z" fill="#FFC600"/>
<path fill-rule="evenodd" clip-rule="evenodd" d="M166.126 0C107.114 0 59 49.0619 59 109.222C59 169.123 107.114 218.184 166.126 218.184C224.878 218.187 273 169.125 273 109.222C273 49.0619 224.878 0 166.126 0ZM168.656 66.3588L215.003 113.612H168.656V66.3588ZM122.313 68.9431C137.761 42.6061 153.207 40.0243 153.207 40.0243C153.207 40.0243 148.143 58.3613 148.143 82.1091C148.143 105.607 153.207 113.612 153.207 113.612H106.865C106.865 113.612 106.865 95.2776 122.313 68.9431ZM107.369 118.778H158.272V40.0243H163.591V118.776H214.497H215.001C215.001 130.393 205.885 139.947 194.49 139.947H192.46C185.117 139.173 177.52 137.108 169.671 132.461C149.66 120.839 129.401 121.876 110.914 130.909C108.384 127.816 106.862 123.423 106.862 118.776H107.369V118.778ZM218.549 172.996C202.594 180.487 184.361 180.487 165.871 169.903C146.878 158.795 127.882 160.606 110.155 169.382V163.702C128.391 154.664 148.397 154.148 167.897 165.256C186.132 175.326 203.103 174.55 218.549 167.319V172.996ZM220.068 158.795C204.113 166.027 186.132 166.027 167.645 155.443C148.652 144.594 129.404 146.148 111.929 154.926V149.244C129.91 140.206 150.173 139.69 169.674 150.795C187.657 160.866 204.622 160.349 220.068 152.858V158.795ZM235.773 136.337C233.997 137.886 231.971 138.916 229.945 140.466C210.949 153.118 189.68 156.475 167.139 143.307C146.376 131.173 125.858 134.269 106.358 145.891C102.563 147.956 99.522 150.02 96.4809 152.604V145.891C98.5091 144.339 101.039 142.79 103.828 141.244C124.339 128.592 147.132 125.232 169.674 138.403C190.187 150.02 209.939 147.438 226.909 135.823C230.452 133.753 232.984 131.69 235.773 129.622V136.337Z" fill="#FFC600"/>
</svg>
