<svg width="143" height="129" viewBox="0 0 143 129" fill="none" xmlns="http://www.w3.org/2000/svg">
                    <path d="M102.568 121.267C103.043 120.892 102.699 120.259 102.37 119.912L102.21 119.708C102.156 119.64 102.112 119.598 102.084 119.52L101.825 119.206C101.583 118.857 101.343 118.594 101.129 118.322L100.95 118.067C100.649 117.797 100.426 117.499 100.209 117.14L100.074 116.927C99.8323 116.578 99.5645 116.238 99.271 115.907L99.1103 115.703C98.8425 115.363 98.6189 115.065 98.3769 114.716L98.2419 114.503C98.0441 114.196 97.8206 113.898 97.5971 113.6L97.4271 113.37C97.1078 113.049 96.84 112.709 96.5629 112.343L96.2416 111.935C96.1787 111.841 96.0994 111.783 96.0459 111.715L95.7245 111.307C95.536 111.025 95.331 110.779 95.1168 110.507L94.9561 110.303C94.7768 110.048 94.5904 109.853 94.4298 109.649C94.3762 109.581 94.2969 109.522 94.2341 109.429C93.6284 108.716 93.0743 107.984 92.4686 107.271L92.308 107.067L91.5602 106.202L91.2481 105.82C91.106 105.667 90.9731 105.54 90.8239 105.449C90.6653 105.331 90.516 105.24 90.341 105.157C90.2288 105.169 90.1423 105.171 90.0652 105.199C90.0044 105.192 89.9273 105.219 89.8244 105.257L89.5928 105.34C89.0948 105.491 88.676 105.701 88.1966 105.903C88.0258 105.994 87.8971 106.04 87.7171 106.105C87.3169 106.366 87.2338 106.862 87.2629 107.347L87.26 107.581C87.2992 107.77 87.3199 107.908 87.3077 108.117L87.314 108.376C87.3402 109.095 87.4528 109.811 87.3925 110.532C87.3854 110.593 87.3618 110.688 87.3732 110.801C87.393 111.259 87.4221 111.744 87.4677 112.193L87.474 112.453C87.5031 112.937 87.5744 113.378 87.5428 113.855L87.5584 114.14L87.5281 115.025L87.5345 115.285C87.5779 115.647 87.5956 116.02 87.5876 116.401L87.6033 116.686L87.6315 117.491C87.5822 117.597 87.6193 117.7 87.6214 117.786L87.6502 119.319C87.6616 119.431 87.6637 119.518 87.6822 119.57C87.7021 120.028 87.7641 120.443 87.7232 120.894L87.7388 121.18L87.8262 122.633L87.8233 122.867C87.8317 123.213 87.8659 123.55 87.9 123.887C87.8735 124.217 87.8727 124.538 87.9418 124.891L87.9174 125.308C87.936 125.359 87.9381 125.446 87.9495 125.558C87.998 125.774 88.0743 126.066 88.2679 126.2C88.3729 126.25 88.4336 126.257 88.4944 126.264L88.8566 126.221C88.9338 126.193 88.9688 126.209 89.046 126.181C89.8713 125.97 90.6173 125.701 91.3169 125.303C91.4105 125.24 91.4691 125.16 91.5113 125.116C91.6635 124.974 91.72 124.808 91.7415 124.625C91.7394 124.539 91.763 124.443 91.7516 124.33L91.736 124.045C91.7175 123.993 91.7154 123.907 91.704 123.794C91.6854 123.743 91.6833 123.656 91.6719 123.544C91.7322 122.823 91.5424 122.135 91.5512 121.433L91.5356 121.147L91.6899 121.092C91.7157 121.082 91.7414 121.073 91.7578 121.038C91.7928 121.054 91.8185 121.045 91.87 121.027L92.1272 120.934C92.2044 120.906 92.2909 120.904 92.368 120.876C93.1233 120.632 93.8879 120.414 94.6246 120.119L97.017 119.254C97.4105 119.782 97.7926 120.197 98.1933 120.664L98.3539 120.868L98.7753 121.473L98.936 121.677C99.2109 121.956 99.5002 122.113 99.7782 122.159C99.8646 122.156 99.9253 122.164 100.003 122.136C100.243 122.078 100.51 122.011 100.741 121.927L100.973 121.843C101.471 121.693 101.971 121.628 102.381 121.393L102.568 121.267ZM92.1422 116.939C92.0651 116.967 91.9786 116.969 91.8757 117.006L91.3098 117.211C91.2764 116.553 91.2895 116.024 91.2561 115.367C91.2447 115.254 91.2426 115.168 91.2241 115.116C91.192 114.866 91.1857 114.606 91.2236 114.389L91.2173 114.129C91.2088 113.782 91.2261 113.427 91.1827 113.064C91.1805 112.977 91.1877 112.917 91.1692 112.865C91.1578 112.753 91.1556 112.666 91.1278 112.589C91.1164 112.477 91.1143 112.39 91.105 112.364C91.0987 112.104 91.0831 111.819 91.0139 111.465C91.0953 111.611 91.1839 111.695 91.2374 111.763L91.3981 111.967C91.9316 112.561 92.3365 113.2 92.8957 113.785L93.0214 113.972C93.5271 114.488 93.9648 115.058 94.4304 115.705L94.6097 115.96L94.6725 116.054L94.4153 116.147C93.6693 116.417 92.8604 116.592 92.1422 116.939Z" fill="#FFC600"/>
                    <path d="M31.989 104.563C32.3233 104.239 32.619 103.915 32.9343 103.572L33.4849 103.039C33.6416 102.925 33.7203 102.849 33.8186 102.754C34.3496 102.24 34.8019 101.803 35.3139 101.269C35.4516 101.136 35.5499 101.041 35.5899 100.964C35.7479 100.773 35.9445 100.583 36.1215 100.411L36.8098 99.7452C36.8485 99.7459 36.9075 99.6888 36.9665 99.6317C37.5558 99.0995 38.2402 98.6657 38.6775 97.9759C39.0938 97.3826 38.329 96.8659 37.989 96.3951L37.7799 96.1785C37.4759 95.8633 37.1712 95.5869 36.9235 95.3696C36.8088 95.2901 36.7525 95.1923 36.6365 95.1903C36.3494 95.0111 36.0394 95.0445 35.7261 95.2715C34.9428 95.8392 34.4641 96.6832 33.7188 97.2902L33.4042 97.5947C33.3058 97.6899 33.1885 97.7654 33.0902 97.8605C32.9722 97.9747 32.8738 98.0699 32.8338 98.1467C32.5389 98.4321 32.3415 98.6612 32.0465 98.9467L31.9482 99.0418C31.2992 99.6699 30.7839 100.397 30.154 101.045L29.9376 101.254C29.3483 101.786 28.7216 102.24 28.131 102.85L27.9737 103.002C27.7967 103.174 27.6007 103.325 27.4624 103.497L27.208 103.667C26.6384 104.18 25.836 104.728 25.1197 104.774C24.9643 104.81 24.8483 104.808 24.7127 104.825L24.5003 104.802L24.3076 104.76C23.5389 104.476 22.8915 103.884 22.3994 103.255L22.2684 103.001C22.1184 102.727 22.0653 102.436 22.0903 102.107L22.095 101.836C22.1166 101.701 22.1566 101.624 22.1769 101.566C22.2183 101.412 22.2399 101.277 22.3002 101.142C22.4412 100.815 22.6195 100.567 22.7972 100.357L22.9742 100.185C23.1335 99.9169 23.3112 99.7069 23.5275 99.4976C23.8035 99.1924 24.0205 98.9443 24.2761 98.6969L24.4728 98.5066C24.5515 98.4304 24.5915 98.3537 24.6701 98.2775C24.6905 98.2198 24.7495 98.1627 24.8478 98.0675C25.3821 97.36 26.1831 96.8895 26.7554 96.2214L26.9521 96.0311C27.3867 95.4962 27.9354 95.0795 28.4263 94.6425C30.4126 92.7203 30.9083 92.0121 31.4556 91.6729L31.6916 91.4445C31.8889 91.2154 32.1642 90.949 32.1689 90.6779C32.1709 90.5617 32.1335 90.4836 32.0765 90.4245L31.1644 89.4791C30.551 89.1586 30.1456 87.9895 29.2876 88.4009L29.0922 88.5137C28.7206 88.7591 28.4622 89.1615 28.1286 89.4463C28.0886 89.5231 28.0296 89.5802 27.9313 89.6753C27.7936 89.8085 27.6953 89.9037 27.6553 89.9805L27.4599 90.0933C27.3616 90.1885 27.3026 90.2456 27.2626 90.3224C26.7126 90.8166 26.2196 91.3698 25.6887 91.8837C25.6297 91.9408 25.5897 92.0175 25.492 92.074C25.197 92.3594 24.8633 92.6443 24.5677 92.9685L24.3317 93.1968C24.017 93.5014 23.7017 93.8446 23.3871 94.1491C22.7381 94.7771 22.1074 95.4636 21.4775 96.1114C21.0245 96.5878 20.5708 97.103 20.1362 97.6379C19.6622 98.2108 19.2072 98.8035 18.8866 99.4565C18.6473 99.8785 18.4853 100.302 18.3627 100.687C18.2414 100.995 18.1974 101.304 18.1534 101.613L18.1284 101.942C18.0588 102.619 18.2612 103.223 18.4819 103.885L18.6306 104.236C19.1331 105.388 20.1252 106.18 20.9213 107.123L21.2064 107.419C21.9331 107.896 22.6395 108.431 23.5059 108.659L23.7759 108.702C24.1613 108.787 24.586 108.833 25.0113 108.84L25.282 108.845C26.1537 108.763 26.9711 108.467 27.7884 108.171C27.8474 108.114 27.9254 108.076 27.9844 108.019C28.0434 107.962 28.1411 107.906 28.2001 107.849L28.9047 107.357C28.9834 107.281 29.0817 107.186 29.1794 107.13C29.5314 106.903 29.7871 106.656 30.0617 106.428C30.7677 105.859 31.3787 105.192 31.989 104.563Z" fill="#FFC600"/>
                    <path d="M123.661 101.954C123.544 101.877 123.448 101.78 123.312 101.645L123.138 101.471C122.906 101.122 122.499 100.871 122.171 101.317L118.906 104.593L117.222 102.909C117.048 102.735 116.893 102.542 116.719 102.367C116.661 102.309 116.622 102.232 116.564 102.174C116.022 101.516 115.364 101.013 114.783 100.394C114.706 100.316 114.648 100.258 114.57 100.22L113.816 99.465C113.351 98.8845 112.906 98.4394 112.441 97.8589L112.248 97.6654C112.035 97.4525 111.783 97.2397 111.57 97.0269L111.396 96.8527C110.796 96.2529 110.235 95.6531 109.577 95.1114L109.403 94.9372C108.938 94.4729 108.473 93.6986 107.816 93.8542L107.661 93.9318L107.526 94.0675C107.468 94.0869 107.41 94.145 107.333 94.2226C107.217 94.3001 107.101 94.4165 107.004 94.5134C106.908 94.6103 106.85 94.6685 106.811 94.746L106.657 94.901C106.425 95.1337 106.232 95.3662 106 95.5988C105.942 95.657 105.903 95.7345 105.845 95.7927C105.691 96.0639 105.575 96.3352 105.73 96.6836C105.788 96.7417 105.827 96.8191 105.904 96.8965C106.001 97.032 106.156 97.1481 106.349 97.2641L107.046 97.9606C107.588 98.5024 108.13 99.0829 108.633 99.5473L108.769 99.6827C109.408 100.437 110.124 101.115 110.801 101.831L111.014 102.043C111.363 102.43 111.653 102.759 112.04 103.108L112.93 103.998C113.375 104.443 115.059 106.087 116.511 107.539L116.646 107.674C117.246 108.313 117.827 109.048 118.524 109.628C118.582 109.686 118.64 109.744 118.679 109.744C118.756 109.783 118.833 109.783 118.872 109.783C119.317 109.647 119.587 109.376 119.877 109.046L120.07 108.852C120.611 108.193 121.249 107.67 121.828 107.05L123.992 104.878C124.031 104.801 124.108 104.723 124.204 104.626C124.301 104.53 124.398 104.471 124.533 104.336L124.687 104.181C125.132 103.851 125.015 103.348 124.648 102.98L124.532 102.864C124.357 102.573 124.086 102.341 123.835 102.128L123.661 101.954Z" fill="#FFC600"/>
                    <path d="M8.64835 72.1574C8.69512 72.0957 8.73448 71.9797 8.77012 71.8366C8.78609 71.7515 8.76754 71.6158 8.74158 71.4259C8.47999 70.5218 8.74917 69.4621 8.20068 68.6803C8.10085 68.5558 7.95425 68.4929 7.81136 68.4572C7.66477 68.3944 7.4714 68.3933 7.28174 68.4193C7.20045 68.4304 7.16965 68.407 7.08837 68.4181L6.81001 68.401C6.47375 68.3642 6.13379 68.3002 5.80237 68.0969C5.65577 68.034 5.56336 67.9638 5.44386 67.8972L5.28613 67.753L5.1555 67.605C4.70313 66.9207 4.53025 66.0597 4.50397 65.2616L4.54816 64.9791C4.58864 64.6695 4.71782 64.403 4.932 64.1525L5.09569 63.9365C5.19294 63.8403 5.27051 63.802 5.32099 63.7674C5.44534 63.6674 5.54259 63.5712 5.67064 63.4983C5.93045 63.3798 6.21736 63.2575 6.53878 63.1858C6.62006 63.1746 6.69764 63.1363 6.77892 63.1252C7.06954 63.0301 7.33677 62.9658 7.6348 62.9249C8.03751 62.8421 8.35893 62.7703 8.71115 62.7221C8.81953 62.7072 8.8971 62.6689 8.97838 62.6578C9.08676 62.6429 9.16433 62.6046 9.27271 62.5898C10.0584 62.482 10.8861 62.4791 11.6607 62.29C11.742 62.2789 11.827 62.2948 11.9354 62.28C12.2876 62.2317 12.6164 62.2142 13.0265 62.1857C13.2975 62.1485 13.5992 62.1348 13.9047 62.1482C13.986 62.137 14.071 62.153 14.1522 62.1419C14.4811 62.1245 14.7902 62.165 15.0723 62.2093C15.2152 62.245 15.3347 62.3115 15.4813 62.3743C15.5392 62.394 15.6242 62.41 15.7437 62.4766L15.9593 62.6405C16.2328 62.8242 16.4288 63.0461 16.5509 63.3335L16.6692 63.5937C16.8581 64.3695 16.9226 65.2453 16.6705 66.0262L16.5844 66.2039L16.4712 66.3853C16.3739 66.4815 16.3038 66.5741 16.1794 66.6741C15.9615 66.8975 15.7596 67.0357 15.5269 67.1506L15.2905 67.2383C14.9494 67.368 14.5467 67.4508 14.3325 67.7014C14.1688 67.9173 14.2983 68.2589 14.3391 68.5574L14.4652 69.48C14.4151 70.1227 14.4696 70.7235 14.8418 71.2253C14.896 71.2179 14.9502 71.2104 14.981 71.2339C15.5366 71.4618 16.1067 71.1901 16.6374 71.0344L16.8468 70.9504C17.242 70.8133 17.5831 70.6836 17.9057 70.4182C18.0842 70.3108 18.259 70.1762 18.3834 70.0763C18.69 69.896 18.9854 69.6343 19.2735 69.3184L19.4372 69.1024C19.6944 68.7631 19.9208 68.4003 20.0931 68.045L20.226 67.8056C20.5827 66.9826 20.5995 66.0957 20.6742 65.2285L20.6185 64.8214C20.3703 63.6115 20.3623 62.3409 19.7693 61.2335L19.5856 60.8993C19.2022 60.3161 18.8534 59.7834 18.2793 59.4198L18.0057 59.2361C17.7359 59.0796 17.4661 58.9231 17.1495 58.8283C16.7714 58.6866 16.339 58.5524 15.8598 58.4799C15.1491 58.3285 14.4027 58.3203 13.66 58.3392L13.1378 58.3555C13.0566 58.3666 12.9716 58.3506 12.8903 58.3618L12.1513 58.4078C12.07 58.4189 11.9851 58.4029 11.9038 58.4141C11.2153 58.4256 10.565 58.5147 9.89138 58.6347L9.64754 58.6682C8.92712 58.8499 8.24606 58.9156 7.51823 59.043L7.27438 59.0765C6.84458 59.163 6.41479 59.2496 5.99241 59.3905C5.27199 59.5722 4.55529 59.781 3.91132 60.1181C3.46926 60.3169 3.08881 60.5626 2.76255 60.8009C2.48306 60.9774 2.26518 61.2008 2.0473 61.4242L1.83312 61.6747C1.37768 62.1794 1.18463 62.7864 0.971906 63.4514L0.884654 63.8228C0.610641 65.0491 0.943826 66.275 1.02946 67.5073L1.08509 67.9143C1.38973 68.7295 1.6439 69.5793 2.20835 70.276L2.40059 70.4707C2.66185 70.7667 2.97731 71.0551 3.31614 71.3128L3.53177 71.4767C4.2833 71.9266 5.11725 72.1716 5.9512 72.4166C6.03248 72.4055 6.11747 72.4215 6.19875 72.4103C6.28004 72.3992 6.39212 72.4115 6.47341 72.4003L7.33187 72.4209L7.49443 72.3986C7.91197 72.4242 8.43418 72.4079 8.64835 72.1574Z" fill="#FFC600"/>
                    <path d="M19.337 89.6462C20.1359 89.2876 20.9715 88.9417 21.7472 88.4726L22.2152 88.1839L22.3874 88.1001L22.8308 87.8233C23.4842 87.3528 24.2221 86.9936 24.6948 86.2762C24.8311 86.1184 24.9554 85.9361 25.0425 85.8023C25.2779 85.5354 25.4774 85.1947 25.6529 84.8047L25.7414 84.5484C25.8804 84.1457 25.9829 83.7304 26.0362 83.339L26.0881 83.0701C26.1714 82.1768 25.9118 81.3287 25.7133 80.4813L25.5339 80.1118C24.9221 79.0393 24.5197 77.8343 23.612 76.9668L23.3336 76.7064C22.7881 76.2716 22.2911 75.8741 21.6325 75.7075L21.3155 75.6182C21.0104 75.5535 20.7054 75.4889 20.375 75.4974C19.9716 75.4807 19.519 75.4879 19.0411 75.5683C18.3186 75.646 17.6068 75.8708 16.9068 76.1202L16.4156 76.2984C16.3418 76.3344 16.2561 76.3457 16.1823 76.3816L15.4944 76.6556C15.4206 76.6916 15.3348 76.7029 15.261 76.7388C14.6103 76.9643 14.02 77.2516 13.4171 77.5757L13.1958 77.6834C12.5676 78.0806 11.9408 78.3554 11.2887 78.7033L11.0673 78.8111C10.6858 79.0273 10.3042 79.2436 9.94657 79.5091C9.31839 79.9063 8.70216 80.3281 8.1949 80.8492C7.83658 81.1759 7.55135 81.528 7.31532 81.8561C7.10456 82.111 6.96691 82.3912 6.82925 82.6714L6.70355 82.9762C6.42756 83.5978 6.4327 84.2349 6.43716 84.9331L6.46962 85.3132C6.59023 86.564 7.2878 87.6252 7.75206 88.7696L7.93141 89.1391C8.47422 89.8189 8.9798 90.5472 9.73269 91.0334L9.97591 91.1586C10.3161 91.3584 10.7056 91.5342 11.1076 91.6735L11.3635 91.7621C12.2175 91.9553 13.0862 91.9283 13.9548 91.9012C14.0286 91.8653 14.1144 91.854 14.1881 91.8181C14.2619 91.7822 14.3723 91.7589 14.446 91.723L15.2683 91.4749C15.3666 91.427 15.4896 91.3671 15.5999 91.3439C16.0047 91.2381 16.3245 91.0825 16.6562 90.9514C17.5036 90.6302 18.2914 90.1857 19.0664 89.7779L19.337 89.6462ZM15.9182 86.9254L15.4017 87.1769C15.2541 87.2487 15.1558 87.2966 15.0939 87.3572L14.7995 87.4396C14.6027 87.5354 14.2956 87.6545 14.0511 87.6518C13.5233 87.8174 13.0201 87.971 12.4712 87.8424C12.3123 87.8283 12.2027 87.7904 12.0684 87.7644L11.8737 87.6764L11.7036 87.5765C11.0611 87.0671 10.6293 86.3029 10.3563 85.5526L10.3105 85.2704C10.2528 84.9635 10.2927 84.6699 10.4184 84.3651L10.5069 84.1089C10.5694 83.9871 10.6312 83.9265 10.6685 83.8779C10.7556 83.7441 10.8181 83.6223 10.9171 83.5132C11.1272 83.3196 11.3619 83.1139 11.6451 82.9456C11.7189 82.9097 11.7807 82.8491 11.8545 82.8132C12.1011 82.6322 12.3351 82.4878 12.6056 82.3561C12.9626 82.1519 13.2458 81.9835 13.5655 81.8279C13.6639 81.78 13.7257 81.7194 13.7995 81.6835C13.8979 81.6356 13.9597 81.575 14.0581 81.5271C14.7713 81.1799 15.557 80.9191 16.2343 80.498C16.3081 80.462 16.3939 80.4508 16.4923 80.4029C16.812 80.2472 17.1191 80.1281 17.4999 79.9731C17.7459 79.8534 18.0284 79.7463 18.3228 79.6638C18.3966 79.6279 18.4824 79.6166 18.5562 79.5807C18.8632 79.4616 19.1697 79.4038 19.4515 79.3579C19.5984 79.3473 19.7326 79.3733 19.8914 79.3873C19.9526 79.388 20.0383 79.3767 20.1726 79.4027L20.4284 79.4913C20.7454 79.5806 21.0006 79.7305 21.2059 79.9655L21.3993 80.1759C21.8198 80.8543 22.1532 81.6665 22.1563 82.4872L22.1297 82.6829L22.0784 82.8906C22.0159 83.0124 21.978 83.1222 21.8909 83.256C21.6528 83.7678 21.2214 84.0692 20.7654 84.3826C20.6164 84.5769 20.3333 84.7453 20.1365 84.8411L19.8899 85.0221C19.6812 85.0932 19.4598 85.201 19.2385 85.3088L18.2547 85.7878C18.0453 85.9202 17.8605 86.0406 17.5899 86.1723L17.3686 86.2801C16.9505 86.4837 16.4846 86.5887 16.0784 86.8169C16.0046 86.8529 15.992 86.8895 15.9182 86.9254Z" fill="#FFC600"/>
                    <path d="M53.435 107.507C53.4851 107.409 53.5227 107.336 53.5109 107.299C53.7343 107.045 53.8612 106.679 53.8525 106.397C53.8658 106.312 53.8666 106.25 53.8062 106.188C53.7945 106.151 53.7709 106.078 53.7105 106.016C53.0198 105.505 52.3385 105.214 51.5726 104.85C51.4997 104.812 51.4142 104.799 51.3413 104.761C51.0363 104.696 50.7432 104.668 50.4587 104.921C50.4211 104.994 50.3591 105.055 50.309 105.152C50.2095 105.286 50.146 105.469 50.0943 105.688L49.3045 107.222C48.9299 107.83 48.5797 108.45 48.2537 109.083C48.2043 109.119 48.1667 109.192 48.1166 109.289C47.8909 109.727 47.7021 110.154 47.5376 110.593C47.5 110.666 47.4381 110.726 47.4004 110.799L47.2876 111.018C46.9264 111.54 46.6749 112.089 46.3865 112.648L45.4713 114.425C45.4892 113.972 45.4703 113.531 45.4146 113.102L45.3808 112.868L45.3714 112.648L45.3501 112.39C45.3711 111.692 45.3914 111.056 45.2407 110.392L45.1952 110.122C45.1261 109.778 45.1057 109.46 45.122 109.129L45.1008 108.872L45.1249 107.929C45.1382 107.843 45.1147 107.769 45.1037 107.671C45.0973 107.206 45.0415 106.776 45.0595 106.323C45.0853 106.213 45.0743 106.115 45.0751 106.054C45.0758 105.993 45.0649 105.894 45.0296 105.784L44.9958 105.551L44.9227 104.557L44.9257 104.312L44.892 104.079C44.8567 103.969 44.8692 103.944 44.8825 103.859C44.8298 103.184 44.6423 102.533 44.7606 101.885L44.7503 101.726L44.7158 101.554C44.704 101.517 44.6805 101.443 44.6201 101.381C44.3433 101.022 43.9176 100.833 43.4919 100.644L43.2732 100.531C43.0787 100.431 42.8475 100.342 42.6287 100.229C42.5558 100.191 42.4704 100.178 42.3975 100.14C42.0925 100.075 41.7993 100.047 41.5148 100.301C41.4772 100.374 41.4153 100.434 41.3652 100.531C41.2656 100.665 41.2022 100.848 41.1505 101.068L38.781 105.668C38.7685 105.693 38.7317 105.704 38.7191 105.729L38.5937 105.972L37.4301 108.052L36.7406 109.391C36.377 110.097 34.8092 113.201 33.7561 115.245L33.6683 115.416C33.4176 115.902 32.8847 116.459 33.0392 116.816L33.1466 117.026C33.3638 117.262 33.6672 117.449 34.02 117.601L34.2631 117.726C35.0188 117.932 35.6187 118.858 36.2355 118.437C36.5686 118.208 36.672 117.769 36.8608 117.342L36.9736 117.123C37.1241 116.831 37.2502 116.527 37.4736 116.272L40.169 111.039C40.3194 110.747 40.4699 110.455 40.6446 110.175L40.7324 110.005C40.9949 109.555 41.1594 109.116 41.3733 108.641C41.437 109.413 41.3305 110.098 41.4553 110.871C41.4671 110.908 41.4906 110.982 41.4773 111.068C41.5126 111.178 41.5001 111.203 41.4868 111.288L41.472 111.496C41.5073 111.607 41.4947 111.631 41.4814 111.717C41.6298 112.564 41.5955 113.347 41.6215 114.193L41.631 114.414L41.6647 114.647C41.7903 115.359 41.6713 116.068 41.8949 116.769C41.9051 116.928 41.9036 117.051 41.8535 117.148L41.8754 117.344L41.8951 117.724L41.9164 117.982C41.9926 118.73 42.0209 119.392 42.0485 120.115C42.0595 120.213 42.0831 120.287 42.0698 120.372C42.1851 120.925 41.9533 121.853 42.6722 122.07L43.2069 122.347C43.9626 122.552 44.5625 123.479 45.1794 123.058C45.5501 122.756 45.6675 122.169 45.9551 121.671L46.1306 121.33C46.2184 121.16 46.3054 121.051 46.4174 120.893L49.1128 115.659C49.4764 114.954 49.9497 114.273 50.2404 113.53C50.278 113.457 50.3399 113.396 50.3901 113.299C50.553 112.983 50.7278 112.703 50.9401 112.351L52.0434 110.209C52.1061 110.087 52.4829 109.295 52.9217 108.443L53.022 108.249C53.1341 108.091 53.2093 107.945 53.2971 107.774L53.435 107.507Z" fill="#FFC600"/>
                    <path d="M70.9138 113.25C70.9397 113.195 70.965 113.112 71.0442 113L71.2307 112.804C71.4432 112.552 71.6851 112.381 71.9837 112.291L72.255 112.202C73.0457 112.1 73.922 112.132 74.6691 112.47L74.8359 112.575L75.0034 112.708C75.0882 112.815 75.1723 112.895 75.2578 113.03C75.4554 113.272 75.5703 113.488 75.6585 113.732L75.7194 113.977C75.7516 114.168 75.7838 114.359 75.8707 114.549C75.9302 114.739 76.0157 114.874 76.1559 115.007C76.9002 115.235 77.7436 115.049 78.5111 115.112C78.6205 115.109 78.7025 115.107 78.7579 115.133C79.3046 115.119 79.7877 114.751 79.8005 114.175C79.797 114.038 79.7949 113.956 79.7662 113.902L79.6353 113.056L79.5751 112.838C79.4827 112.43 79.3916 112.076 79.1639 111.725C79.0771 111.536 78.9628 111.347 78.8774 111.212C78.7324 110.887 78.5053 110.564 78.2236 110.242L78.0274 110.055C77.719 109.762 77.3841 109.496 77.0505 109.286L76.8276 109.127C76.0503 108.681 75.172 108.566 74.3197 108.396L73.9096 108.407C72.6815 108.52 71.4198 108.388 70.2553 108.856L69.9034 109.002C69.2823 109.319 68.7151 109.607 68.2909 110.139L68.0784 110.39C67.8933 110.642 67.7082 110.893 67.5791 111.198C67.422 111.476 67.2923 111.753 67.2165 112.001L67.0909 112.443C66.9106 112.886 66.8117 113.299 66.7975 113.82C66.7996 113.902 66.7743 113.985 66.7771 114.095C66.8806 114.942 66.8208 115.82 67.251 116.603C67.2797 116.657 67.3091 116.739 67.3939 116.846C67.5081 117.035 67.621 117.169 67.7611 117.303L67.9573 117.49C68.3792 117.945 68.8544 118.343 69.4375 118.685L69.6036 118.763L69.797 118.84C70.603 119.34 71.5114 119.564 72.3679 119.898L72.6434 119.973C73.4964 120.171 74.2982 120.507 75.0475 120.926C75.1302 120.951 75.1855 120.977 75.2696 121.057C75.4084 121.136 75.5212 121.27 75.634 121.404C75.6635 121.486 75.7195 121.539 75.7476 121.566L75.8358 121.81L75.896 122.028L75.903 122.301C75.8923 122.959 75.6888 123.567 75.1805 124.018L74.9926 124.16C74.858 124.246 74.7234 124.331 74.5874 124.362L74.3161 124.451C73.5254 124.554 72.6492 124.521 71.902 124.184L71.7352 124.079L71.5677 123.946C71.4829 123.838 71.3988 123.758 71.3134 123.624C71.0597 123.329 70.942 123.003 70.8517 122.676L70.7901 122.404C70.788 122.322 70.7599 122.295 70.7579 122.213C70.753 122.021 70.7208 121.83 70.6353 121.696L70.5211 121.507L70.3529 121.347C70.2702 121.321 70.1868 121.269 70.0768 121.244C69.774 121.169 69.4452 121.15 69.0898 121.159C68.9805 121.162 68.8985 121.164 68.8431 121.138C68.4078 121.232 67.8863 121.163 67.4236 121.257C67.3416 121.259 67.2603 121.288 67.1523 121.346C66.6104 121.551 66.681 122.18 66.8022 122.642L66.807 122.834C66.8084 122.889 66.8091 122.916 66.8371 122.943C66.9638 123.624 67.0625 124.28 67.4065 124.901L67.4941 125.118L67.609 125.334C67.6931 125.414 67.6671 125.47 67.7512 125.55C67.9509 125.873 68.1499 126.17 68.3475 126.411L68.5437 126.598C68.8521 126.892 69.1871 127.157 69.5207 127.368L69.7435 127.526C70.5208 127.973 71.3991 128.087 72.2514 128.257L72.6615 128.247C73.8896 128.133 75.1513 128.266 76.3158 127.798L76.6677 127.652C77.2888 127.335 77.856 127.046 78.2802 126.515L78.4927 126.263C78.6778 126.012 78.8629 125.76 78.992 125.456L79.0965 125.261L79.1737 125.068C79.5103 124.319 79.7089 123.52 79.8255 122.722C79.8227 122.613 79.848 122.53 79.8452 122.42C79.8376 122.119 79.8026 121.819 79.7137 121.547C79.7109 121.438 79.7088 121.355 79.6794 121.274C79.6018 120.372 79.2543 119.613 78.6636 118.971L78.5227 118.81L78.0728 118.328L77.8213 118.116C77.2914 117.718 76.7125 117.541 76.1328 117.337C76.0775 117.311 75.994 117.258 75.884 117.233C75.0002 116.9 74.0651 116.704 73.2072 116.315C73.0972 116.29 73.0145 116.265 72.9871 116.266C72.3255 116.063 71.6898 115.806 71.1586 115.353L70.9616 115.139C70.5405 114.712 70.5217 113.972 70.8093 113.444C70.8345 113.362 70.8605 113.306 70.9138 113.25Z" fill="#FFC600"/>
                    <path d="M111.454 112.426L108.147 107.557C107.701 106.9 107.33 106.159 106.816 105.549C106.77 105.481 106.746 105.398 106.684 105.307C106.485 105.013 106.323 104.726 106.114 104.37L104.761 102.378C104.684 102.264 104.169 101.555 103.631 100.762L103.508 100.581C103.423 100.407 103.33 100.272 103.223 100.113L103.054 99.8639C102.992 99.7733 102.946 99.7054 102.908 99.6981C102.791 99.3801 102.531 99.0939 102.279 98.9671C102.21 98.9146 102.157 98.8847 102.074 98.9083C102.036 98.901 101.96 98.8865 101.877 98.9101C101.099 99.2744 100.519 99.7357 99.8334 100.236C99.7656 100.282 99.7131 100.351 99.6453 100.397C99.4427 100.635 99.2781 100.879 99.365 101.251C99.4112 101.319 99.4347 101.402 99.4962 101.492C99.5659 101.644 99.6962 101.787 99.8645 101.937L102.756 106.195C102.749 106.233 102.764 106.255 102.795 106.301L102.949 106.527C102.995 106.595 103.019 106.678 103.065 106.746C103.488 107.418 103.889 108.106 104.358 108.747L105.065 109.789C105.511 110.446 107.487 113.306 108.779 115.209L108.887 115.367C109.195 115.82 109.429 116.555 109.816 116.589C109.93 116.611 109.937 116.573 110.051 116.595C110.362 116.516 110.671 116.338 110.972 116.1L111.198 115.946C111.739 115.379 112.838 115.292 112.763 114.549C112.682 114.04 112.125 113.658 111.839 113.091L111.701 112.887C111.593 112.729 111.539 112.6 111.454 112.426Z" fill="#FFC600"/>
                    <path d="M135.167 81.9122L129.758 79.6029C129.029 79.2914 128.317 78.8684 127.555 78.6325C127.48 78.6003 127.415 78.5429 127.314 78.4999C126.987 78.3603 126.696 78.2062 126.33 78.0199L124.116 77.0747C123.99 77.021 123.174 76.7025 122.294 76.3265L122.093 76.2406C121.927 76.1402 121.776 76.0758 121.6 76.0006L121.324 75.8825C121.223 75.8395 121.147 75.8073 121.112 75.8217C120.842 75.6172 120.468 75.5173 120.188 75.5466C120.102 75.5395 120.041 75.5433 119.984 75.6081C119.948 75.6226 119.876 75.6515 119.819 75.7163C119.36 76.4437 119.121 77.1454 118.814 77.9372C118.782 78.0128 118.775 78.0991 118.742 78.1747C118.7 78.4841 118.693 78.779 118.967 79.0446C119.042 79.0768 119.107 79.1342 119.208 79.1772C119.348 79.2668 119.535 79.3168 119.757 79.3523L124.487 81.3716C124.501 81.4076 124.526 81.4183 124.577 81.4398L124.828 81.5472C124.904 81.5794 124.968 81.6368 125.044 81.6691C125.763 82.0057 126.471 82.3676 127.211 82.6539L128.368 83.148C129.098 83.4595 132.303 84.7984 134.416 85.7006L134.593 85.7758C135.096 85.9906 135.689 86.4822 136.034 86.3017C136.141 86.2583 136.127 86.2224 136.234 86.179C136.453 85.9448 136.618 85.628 136.743 85.2646L136.85 85.0126C136.999 84.2427 137.878 83.5757 137.413 82.9904C137.071 82.6062 136.396 82.5859 135.85 82.2633L135.623 82.1667C135.447 82.0915 135.332 82.0126 135.167 81.9122Z" fill="#FFC600"/>
                    <path d="M142.851 60.3578C142.749 59.7603 142.029 59.7609 141.568 59.8841L141.312 59.928C141.227 59.9426 141.169 59.9614 141.088 59.949L140.689 60.0264C140.267 60.0725 139.922 60.1581 139.581 60.2167L139.271 60.2523C138.89 60.388 138.522 60.4424 138.105 60.4615L137.853 60.4783C137.431 60.5245 137.005 60.5977 136.574 60.698L136.319 60.7419C135.893 60.8151 135.525 60.8696 135.103 60.9157L134.851 60.9325C134.487 60.9599 134.119 61.0143 133.751 61.0688L133.469 61.1085C133.034 61.2359 132.608 61.3091 132.155 61.3782L131.643 61.466C131.531 61.4765 131.442 61.5183 131.356 61.5329L130.845 61.6207C130.508 61.6522 130.194 61.715 129.853 61.7735L129.598 61.8175C129.288 61.8531 129.028 61.9241 128.772 61.968C128.687 61.9827 128.598 62.0244 128.486 62.0349C127.571 62.2272 126.665 62.3653 125.75 62.5576L125.494 62.6015L124.378 62.846L123.893 62.938C123.692 62.9902 123.517 63.0466 123.366 63.1342C123.187 63.2176 123.035 63.3052 122.879 63.4198C122.836 63.524 122.796 63.6011 122.784 63.6823C122.748 63.7323 122.736 63.8135 122.72 63.9218L122.682 64.1655C122.577 64.6757 122.56 65.1443 122.509 65.6628C122.507 65.8565 122.486 65.9918 122.457 66.1813C122.495 66.6582 122.89 66.9681 123.329 67.1739L123.533 67.2883C123.718 67.3444 123.849 67.3922 124.026 67.5024L124.257 67.6209C124.899 67.9411 125.582 68.1842 126.185 68.5815C126.235 68.6168 126.308 68.6834 126.412 68.7271C126.823 68.9287 127.262 69.1345 127.678 69.3091L127.909 69.4276C128.348 69.6335 128.768 69.781 129.172 70.0368L129.43 70.1594L130.191 70.6086L130.422 70.7271C130.761 70.8622 131.096 71.0244 131.426 71.2136L131.684 71.3363L132.404 71.696C132.473 71.7896 132.581 71.8062 132.658 71.8457L134.016 72.5526C134.12 72.5963 134.197 72.6358 134.251 72.6441C134.663 72.8458 135.056 72.9891 135.432 73.2408L135.69 73.3635L137.007 73.9809L137.211 74.0953C137.519 74.2533 137.831 74.3842 138.142 74.5152C138.419 74.6961 138.7 74.85 139.043 74.958L139.397 75.1785C139.451 75.1867 139.528 75.2263 139.632 75.2699C139.844 75.3301 140.137 75.4028 140.347 75.2964C140.44 75.2276 140.476 75.1776 140.511 75.1276L140.646 74.7881C140.658 74.7069 140.69 74.6839 140.702 74.6027C140.911 73.7759 141.031 72.9907 141.016 72.1849C141.006 72.0724 140.964 71.9829 140.945 71.9246C140.893 71.7227 140.774 71.5937 140.625 71.4876C140.548 71.4481 140.475 71.3815 140.371 71.3379L140.113 71.2152C140.059 71.2069 139.982 71.1674 139.878 71.1238C139.824 71.1155 139.747 71.076 139.643 71.0323C139.04 70.6351 138.345 70.4732 137.734 70.1301L137.476 70.0074L137.501 69.845C137.505 69.8179 137.509 69.7908 137.486 69.7596C137.517 69.7367 137.521 69.7096 137.53 69.6555L137.571 69.3847C137.583 69.3035 137.623 69.2264 137.635 69.1452C137.782 68.3642 137.956 67.5874 138.049 66.7981L138.434 64.2802C139.085 64.186 139.631 64.0482 140.232 63.9186L140.488 63.8747L141.22 63.7929L141.475 63.749C141.852 63.6404 142.128 63.4611 142.3 63.2382C142.34 63.1611 142.375 63.1111 142.388 63.0299C142.452 62.7903 142.52 62.5237 142.557 62.2801L142.595 62.0364C142.7 61.5262 142.883 61.0554 142.872 60.5827L142.851 60.3578ZM134.074 67.4634C134.062 67.5446 134.023 67.6217 134.006 67.73L133.915 68.3256C133.322 68.0408 132.865 67.7767 132.272 67.4918C132.168 67.4482 132.091 67.4087 132.037 67.4004C131.802 67.309 131.571 67.1904 131.398 67.0531L131.167 66.9346C130.859 66.7766 130.556 66.5915 130.217 66.4564C130.14 66.4169 130.09 66.3816 130.036 66.3733C129.932 66.3296 129.855 66.2901 129.774 66.2777C129.67 66.234 129.593 66.1945 129.566 66.1904C129.335 66.0719 129.077 65.9492 128.734 65.8412C128.9 65.839 129.017 65.8014 129.102 65.7868L129.358 65.7429C130.133 65.5569 130.888 65.5064 131.667 65.2934L131.892 65.2724C132.586 65.074 133.295 64.961 134.085 64.8604L134.395 64.8248L134.507 64.8143L134.465 65.085C134.346 65.8702 134.113 66.6658 134.074 67.4634Z" fill="#FFC600"/>
                    <path fill-rule="evenodd" clip-rule="evenodd" d="M53.1972 33.7877C48.3662 41.5486 48.3662 46.9374 48.3662 46.9374H62.8613C62.8613 46.9374 61.2883 44.5663 61.2883 37.6697C61.2883 30.6627 62.8613 25.2739 62.8613 25.2739C62.8613 25.2739 58.0282 26.0268 53.1972 33.7877Z" fill="#FFC600"/>
                    <path fill-rule="evenodd" clip-rule="evenodd" d="M72.5832 0C45.2697 0 23 22.1916 23 49.4032C23 76.4975 45.2697 98.6891 72.5832 98.6891C99.7768 98.6902 122.05 76.4986 122.05 49.4032C122.05 22.1916 99.7768 0 72.5832 0ZM73.7542 30.0154L95.2062 51.389H73.7542V30.0154ZM52.3044 31.1843C59.4547 19.2716 66.6039 18.1038 66.6039 18.1038C66.6039 18.1038 64.2597 26.3979 64.2597 37.1396C64.2597 47.7683 66.6039 51.389 66.6039 51.389H45.1541C45.1541 51.389 45.1541 43.096 52.3044 31.1843ZM45.3875 53.7258H68.9481V18.1038H71.41V53.7247H94.9718H95.2051C95.2051 58.9792 90.9856 63.3007 85.7117 63.3007H84.7719C81.3734 62.9509 77.8571 62.0166 74.2242 59.9146C64.9619 54.6578 55.5852 55.1271 47.0284 59.2128C45.8574 57.8136 45.153 55.8267 45.153 53.7247H45.3875V53.7258ZM96.8471 78.2497C89.4624 81.638 81.0234 81.638 72.4655 76.8506C63.6743 71.8262 54.8819 72.6453 46.6773 76.6148V74.0456C55.1174 69.9577 64.3775 69.7242 73.4031 74.7485C81.8433 79.3035 89.6979 78.9526 96.8471 75.6816V78.2497ZM97.5504 71.8262C90.1657 75.0972 81.8433 75.0972 73.2865 70.3097C64.4953 65.4027 55.5863 66.1056 47.4983 70.0762V67.5059C55.8207 63.418 65.1996 63.1845 74.2253 68.2077C82.5487 72.7627 90.4012 72.5291 97.5504 69.1408V71.8262ZM104.82 61.6679C103.997 62.3686 103.06 62.8347 102.122 63.5353C93.3298 69.2582 83.4853 70.7769 73.0521 64.8205C63.442 59.3323 53.9454 60.7326 44.9197 65.9894C43.1632 66.9236 41.7556 67.8568 40.348 69.0257V65.9894C41.2868 65.2876 42.4578 64.5869 43.7487 63.8873C53.2421 58.1645 63.792 56.6447 74.2253 62.6022C83.7197 67.8568 92.862 66.689 100.717 61.4355C102.357 60.499 103.529 59.5659 104.82 58.6305V61.6679Z" fill="#FFC600"/>
                    </svg>